{"title":"The.Fatal.Encounter.2014.BRRip.480p.x264.AAC-VYTO [P2PDL]","uid":11674554,"size":509963973,"categoryP":"video","categoryS":"movies","magnet":"?xt=urn:btih:1894de2b5bd9a86e20773b44da270abb2fc39bfc&amp;dn=The.Fatal.Encounter.2014.BRRip.480p.x264.AAC-VYTO+%5BP2PDL%5D&amp;tr=udp%3A%2F%2Ftracker.openbittorrent.com%3A80&amp;tr=udp%3A%2F%2Fopen.demonii.com%3A1337&amp;tr=udp%3A%2F%2Ftracker.coppersurfer.tk%3A6969&amp;tr=udp%3A%2F%2Fexodus.desync.com%3A6969","seeders":4,"leechers":1,"uploader":"ValidusVyto","files":6,"time":1422801262,"description":"The.Fatal.Encounter.2014.BRRip.480p.x264.AAC-VYTO\n\n\nGenre: Action | Drama\nIMDb: http://www.imdb.com/title/tt3479208/\n\nGeneral\nFormat                         : MPEG-4\nFile size                      : 477 MiB\nDuration                       : 2h 16mn\nOverall bit rate               : 490 Kbps\n\nVideo\nFormat                         : AVC\nBit rate                       : 447 Kbps\nMaximum bit rate               : 5 828 Kbps\nWidth                          : 720 pixels\nHeight                         : 304 pixels\nDisplay aspect ratio           : 2.35:1\nFrame rate mode                : Constant\nFrame rate                     : 23.976 fps\nBit depth                      : 8 bits\nStream size                    : 435 MiB (91%)\nWriting library                : x264 core 142 r2479 dd79a61\n\nAudio\nFormat                         : AAC\nBit rate mode                  : Variable\nBit rate                       : 40.0 Kbps\nChannel(s)                     : 2 channels\nChannel positions              : Front: L R\nSampling rate                  : 48.0 KHz\nStream size                    : 38.9 MiB (8%)\nLanguage                       : Korean\n\nSubtitle                       : Yes(English)\nSource                         : 720p.BluRay.x264-ROVERS \n &lt;a href=&quot;\nhttp://someimage.com/BtCooos&quot; rel=&quot;nofollow&quot; target=&quot;_NEW&quot;&gt;\nhttp://someimage.com/BtCooos&lt;/a&gt; &lt;a href=&quot;\nhttp://someimage.com/Q89tSMG&quot; rel=&quot;nofollow&quot; target=&quot;_NEW&quot;&gt;\nhttp://someimage.com/Q89tSMG&lt;/a&gt;\n\n----------------------------------------------------------------------------------------------------\n\n\n\nRecommend to you to use latest version of VLC player. Install K-Lite Codec Pack or shark007 codecs\nin case of any kind of problem in playback (For non-VLC Media Player users). Alternatively, install\nCore AVC codecs, the fastest decoder that there is coupled with Community Center Codec Pack and play\non Windows Media Player Classic. Check sample to be sure.\nEnjoy!\n\nEncoder Notes: Looking For Early Access To Anything You Can Provide DVDScr, R5, DVDR, BluRay, Direct\nAudio, Music Releases and Seedboxes. We require dedicated servers, so as to do more \nand fast releases of movies.\nIf You Got anything to offer please contact us.\n\nFind us! Support us!","torrent":{"xt":"urn:btih:1894de2b5bd9a86e20773b44da270abb2fc39bfc","amp;dn":"The.Fatal.Encounter.2014.BRRip.480p.x264.AAC-VYTO+%5BP2PDL%5D","amp;tr":["udp%3A%2F%2Ftracker.openbittorrent.com%3A80","udp%3A%2F%2Fopen.demonii.com%3A1337","udp%3A%2F%2Ftracker.coppersurfer.tk%3A6969","udp%3A%2F%2Fexodus.desync.com%3A6969"],"infoHash":"1894de2b5bd9a86e20773b44da270abb2fc39bfc","infoHashBuffer":{"type":"Buffer","data":[24,148,222,43,91,217,168,110,32,119,59,68,218,39,10,187,47,195,155,252]},"announce":[],"urlList":[]}}